<?xml version="1.0" encoding="utf-8"?>
<!-- Svg Vector Icons : http://www.onlinewebfonts.com/icon -->
<!DOCTYPE svg PUBLIC "-//W3C//DTD SVG 1.1//EN" "http://www.w3.org/Graphics/SVG/1.1/DTD/svg11.dtd">
<svg version="1.1" xmlns="http://www.w3.org/2000/svg" xmlns:xlink="http://www.w3.org/1999/xlink" x="0px" y="0px" viewBox="0 0 1000 1000" enable-background="new 0 0 1000 1000" xml:space="preserve">
<metadata> Svg Vector Icons : http://www.onlinewebfonts.com/icon </metadata>
<g><g><path d="M979.6,267.4L856.2,144c0,0,0,0-0.1-0.1c0,0-0.1,0-0.1-0.1L732.6,20.4C726,13.7,716.9,10,707.5,10c-9.4,0-18.4,3.7-25.1,10.4L84.7,618.1c-4.9,4.9-8.3,11.1-9.7,17.9L10.7,947.3c-2.4,11.7,1.2,23.8,9.7,32.3c6.7,6.7,15.8,10.4,25.1,10.4c2.4,0,4.8-0.2,7.2-0.7L363.9,925c6.8-1.4,13-4.8,17.9-9.7l597.7-597.7C993.5,303.7,993.5,281.3,979.6,267.4z M131.2,714.9l153.9,153.9l-193.9,40L131.2,714.9z M356.7,840L160,643.2L707.5,95.7l73.3,73.3L449.5,500.3c-13.9,13.9-13.9,36.3,0,50.2c6.9,6.9,16,10.4,25.1,10.4c9.1,0,18.2-3.5,25.1-10.4L831,219.2l73.3,73.3L356.7,840z"/></g><g></g><g></g><g></g><g></g><g></g><g></g><g></g><g></g><g></g><g></g><g></g><g></g><g></g><g></g><g></g></g>
</svg>