<svg width="16" height="15" viewBox="0 0 16 15" fill="none" xmlns="http://www.w3.org/2000/svg">
<path d="M8.32823 0C10.3477 0 12.2844 0.790176 13.7124 2.1967C15.1404 3.60322 15.9426 5.51088 15.9426 7.5C15.9426 9.48912 15.1404 11.3968 13.7124 12.8033C12.2844 14.2098 10.3477 15 8.32823 15C6.30877 15 4.37203 14.2098 2.94406 12.8033C1.51609 11.3968 0.713867 9.48912 0.713867 7.5C0.713867 5.51088 1.51609 3.60322 2.94406 2.1967C4.37203 0.790176 6.30877 0 8.32823 0ZM8.32823 6.59036L6.55952 4.84821C6.43705 4.72759 6.27095 4.65982 6.09776 4.65982C5.92457 4.65982 5.75847 4.72759 5.63601 4.84821C5.51354 4.96884 5.44474 5.13244 5.44474 5.30304C5.44474 5.47363 5.51354 5.63723 5.63601 5.75786L7.40471 7.5L5.63601 9.24214C5.57537 9.30187 5.52727 9.37278 5.49445 9.45082C5.46163 9.52886 5.44474 9.6125 5.44474 9.69696C5.44474 9.78143 5.46163 9.86507 5.49445 9.94311C5.52727 10.0212 5.57537 10.0921 5.63601 10.1518C5.69664 10.2115 5.76863 10.2589 5.84786 10.2912C5.92709 10.3235 6.01201 10.3402 6.09776 10.3402C6.18352 10.3402 6.26844 10.3235 6.34766 10.2912C6.42689 10.2589 6.49888 10.2115 6.55952 10.1518L8.32823 8.40964L10.0969 10.1518C10.1576 10.2115 10.2296 10.2589 10.3088 10.2912C10.388 10.3235 10.4729 10.3402 10.5587 10.3402C10.6444 10.3402 10.7294 10.3235 10.8086 10.2912C10.8878 10.2589 10.9598 10.2115 11.0204 10.1518C11.0811 10.0921 11.1292 10.0212 11.162 9.94311C11.1948 9.86507 11.2117 9.78143 11.2117 9.69696C11.2117 9.6125 11.1948 9.52886 11.162 9.45082C11.1292 9.37278 11.0811 9.30187 11.0204 9.24214L9.25174 7.5L11.0204 5.75786C11.0811 5.69813 11.1292 5.62722 11.162 5.54918C11.1948 5.47114 11.2117 5.3875 11.2117 5.30304C11.2117 5.21857 11.1948 5.13493 11.162 5.05689C11.1292 4.97885 11.0811 4.90794 11.0204 4.84821C10.9598 4.78849 10.8878 4.74111 10.8086 4.70878C10.7294 4.67646 10.6444 4.65982 10.5587 4.65982C10.4729 4.65982 10.388 4.67646 10.3088 4.70878C10.2296 4.74111 10.1576 4.78849 10.0969 4.84821L8.32823 6.59036Z" fill="#D01F37"/>
</svg>
